<?xml version="1.0" standalone="no"?>
<!DOCTYPE svg PUBLIC "-//W3C//DTD SVG 20010904//EN"
 "http://www.w3.org/TR/2001/REC-SVG-20010904/DTD/svg10.dtd">
<svg version="1.0" xmlns="http://www.w3.org/2000/svg"
 width="512.000000pt" height="512.000000pt" viewBox="0 0 512.000000 512.000000"
 preserveAspectRatio="xMidYMid meet">

<g transform="translate(0.000000,512.000000) scale(0.100000,-0.100000)"
fill="white" stroke="none">
<path d="M845 4708 c-27 -5 -86 -27 -131 -48 -136 -66 -237 -184 -290 -340
-18 -53 -19 -120 -19 -1760 0 -1640 1 -1707 19 -1760 63 -186 190 -313 376
-376 53 -18 120 -19 1760 -19 1640 0 1707 1 1760 19 187 63 313 189 376 376
18 53 19 120 19 1760 0 1640 -1 1707 -19 1760 -53 157 -153 274 -289 339 -45
22 -109 44 -141 50 -77 14 -3348 13 -3421 -1z m1789 -1120 c55 -16 138 -99
154 -154 8 -28 12 -134 12 -338 l0 -296 296 0 c204 0 310 -4 338 -12 86 -26
166 -136 166 -228 0 -92 -80 -202 -166 -228 -28 -8 -134 -12 -338 -12 l-296 0
0 -296 c0 -204 -4 -310 -12 -338 -26 -86 -136 -166 -228 -166 -92 0 -202 80
-228 166 -8 28 -12 134 -12 338 l0 296 -296 0 c-204 0 -310 4 -338 12 -86 26
-166 136 -166 228 0 92 80 202 166 228 28 8 134 12 338 12 l296 0 0 296 c0
204 4 310 12 338 15 51 99 137 148 153 48 15 105 15 154 1z"/>
</g>
</svg>
