<?xml version="1.0" standalone="no"?>
<!DOCTYPE svg PUBLIC "-//W3C//DTD SVG 20010904//EN"
 "http://www.w3.org/TR/2001/REC-SVG-20010904/DTD/svg10.dtd">
<svg version="1.0" xmlns="http://www.w3.org/2000/svg"
 width="512.000000pt" height="512.000000pt" viewBox="0 0 512.000000 512.000000"
 preserveAspectRatio="xMidYMid meet">

<g transform="translate(0.000000,512.000000) scale(0.100000,-0.100000)"
fill="white" stroke="none">
<path d="M435 4906 c-151 -37 -270 -149 -315 -295 -19 -61 -20 -94 -20 -832 0
-753 0 -771 21 -831 43 -128 138 -228 267 -280 l57 -23 1140 -3 c827 -2 1156
0 1200 8 176 34 317 173 354 348 7 36 11 285 11 785 0 796 -1 806 -57 909 -31
58 -123 147 -181 177 -103 52 -69 51 -1292 50 -867 0 -1147 -4 -1185 -13z
m2350 -245 c51 -23 101 -79 114 -128 15 -54 15 -1454 0 -1508 -15 -52 -82
-119 -134 -134 -28 -8 -368 -11 -1150 -11 l-1110 0 -52 24 c-36 17 -60 38 -80
67 l-28 43 -3 750 c-3 832 -5 807 61 862 66 56 4 53 1217 53 1067 1 1127 0
1165 -18z"/>
<path d="M1103 4438 c-17 -4 -43 -22 -57 -39 l-26 -31 0 -590 0 -590 34 -34
c64 -64 53 -68 660 243 297 152 548 281 557 286 26 16 49 62 49 99 0 75 2 73
-583 371 -300 153 -558 281 -574 286 -15 4 -42 4 -60 -1z m499 -485 c180 -92
328 -170 328 -173 0 -5 -654 -340 -664 -340 -3 0 -6 153 -6 340 0 187 3 340 7
340 3 0 154 -75 335 -167z"/>
<path d="M3629 4905 c-56 -31 -78 -117 -43 -171 37 -55 20 -54 709 -54 698 0
678 -2 710 60 31 60 10 137 -45 165 -42 22 -1291 22 -1331 0z"/>
<path d="M3623 4470 c-17 -10 -37 -28 -42 -39 -7 -13 -11 -145 -11 -381 l0
-362 34 -34 34 -34 656 0 656 0 32 29 33 29 3 361 c2 310 1 365 -13 391 -32
62 -11 60 -712 60 -614 0 -639 -1 -670 -20z m1157 -415 l0 -195 -485 0 -485 0
0 195 0 195 485 0 485 0 0 -195z"/>
<path d="M3653 3423 c-12 -2 -36 -20 -53 -39 -24 -28 -30 -44 -30 -80 0 -39 5
-51 34 -80 l34 -34 656 0 656 0 31 28 c43 39 52 113 18 156 -45 57 -34 56
-706 55 -340 -1 -628 -4 -640 -6z"/>
<path d="M3632 2983 c-61 -30 -62 -35 -62 -423 0 -306 2 -355 16 -379 34 -58
6 -56 684 -59 424 -2 637 0 662 8 20 6 48 24 62 41 l26 31 0 357 c0 352 0 359
-22 386 -44 56 -34 55 -710 55 -555 0 -627 -2 -656 -17z m1148 -423 l0 -200
-485 0 -485 0 0 200 0 200 485 0 485 0 0 -200z"/>
<path d="M165 2351 c-36 -15 -58 -49 -62 -98 -4 -39 -1 -53 18 -77 46 -59 -20
-56 1320 -56 1119 0 1234 1 1265 16 42 20 64 59 64 115 0 33 -6 47 -34 75
l-34 34 -1258 -1 c-693 0 -1268 -4 -1279 -8z"/>
<path d="M3604 1896 c-29 -29 -34 -41 -34 -80 0 -39 6 -52 34 -84 l34 -37 629
-3 c426 -2 640 0 665 8 20 6 49 25 63 42 24 28 27 39 22 82 -3 40 -11 55 -36
78 l-31 28 -656 0 -656 0 -34 -34z"/>
<path d="M174 1850 c-63 -25 -91 -108 -59 -170 32 -62 3 -60 805 -60 802 0
773 -2 805 60 26 50 19 95 -19 138 l-34 37 -739 2 c-406 1 -747 -2 -759 -7z"/>
<path d="M3604 1466 l-34 -34 0 -364 c0 -398 -1 -391 60 -423 44 -23 1287 -22
1330 0 60 31 61 39 58 436 l-3 361 -33 29 -32 29 -656 0 -656 0 -34 -34z
m1176 -401 l0 -195 -485 0 -485 0 0 195 0 195 485 0 485 0 0 -195z"/>
<path d="M3629 425 c-56 -31 -78 -117 -43 -171 37 -55 20 -54 709 -54 698 0
678 -2 710 60 31 60 10 137 -45 165 -42 22 -1291 22 -1331 0z"/>
</g>
</svg>
