<?xml version="1.0" standalone="no"?>
<!DOCTYPE svg PUBLIC "-//W3C//DTD SVG 20010904//EN"
 "http://www.w3.org/TR/2001/REC-SVG-20010904/DTD/svg10.dtd">
<svg version="1.0" xmlns="http://www.w3.org/2000/svg"
 width="512.000000pt" height="512.000000pt" viewBox="0 0 512.000000 512.000000"
 preserveAspectRatio="xMidYMid meet">

<g transform="translate(0.000000,512.000000) scale(0.100000,-0.100000)"
fill="#000000" stroke="none">
<path d="M2330 4466 c-438 -58 -818 -243 -1126 -550 -480 -479 -670 -1169
-503 -1831 57 -230 181 -488 326 -678 381 -503 992 -792 1613 -764 239 11 439
57 665 153 72 31 139 58 150 60 11 3 205 -45 432 -105 226 -61 424 -111 438
-111 67 0 141 65 152 134 4 27 -22 141 -107 461 l-114 424 42 88 c58 124 78
178 112 306 86 327 91 656 12 967 -141 555 -501 1003 -1007 1254 -198 98 -335
144 -550 181 -125 22 -404 28 -535 11z m533 -336 c212 -41 399 -117 575 -233
683 -450 915 -1328 546 -2060 -41 -81 -57 -123 -57 -152 0 -22 37 -177 82
-344 45 -166 80 -305 78 -307 -3 -3 -148 34 -323 81 -175 47 -325 85 -333 85
-9 0 -76 -29 -151 -64 -364 -174 -676 -215 -1055 -140 -190 38 -426 142 -595
262 -121 86 -286 251 -372 372 -81 115 -176 301 -217 427 -57 175 -75 297 -75
503 0 206 18 329 75 502 194 595 730 1024 1364 1092 96 10 353 -3 458 -24z"/>
</g>
</svg>
