<?xml version="1.0" standalone="no"?>
<!DOCTYPE svg PUBLIC "-//W3C//DTD SVG 20010904//EN"
 "http://www.w3.org/TR/2001/REC-SVG-20010904/DTD/svg10.dtd">
<svg version="1.0" xmlns="http://www.w3.org/2000/svg"
 width="512.000000pt" height="512.000000pt" viewBox="0 0 512.000000 512.000000"
 preserveAspectRatio="xMidYMid meet">

<g transform="translate(0.000000,512.000000) scale(0.100000,-0.100000)"
fill="#000000" stroke="none">
<path d="M4374 4785 c-23 -8 -907 -336 -1964 -729 -2150 -799 -1982 -728
-2049 -860 -31 -59 -35 -75 -35 -144 0 -62 5 -88 26 -134 29 -64 89 -128 146
-157 21 -11 413 -137 872 -281 459 -144 839 -266 843 -270 4 -4 125 -382 269
-841 143 -459 269 -851 280 -872 10 -21 37 -56 59 -78 142 -142 385 -120 498
45 20 28 285 728 753 1987 l723 1944 0 80 c0 67 -4 89 -28 136 -32 67 -100
132 -165 162 -61 26 -172 33 -228 12z m-1161 -1347 l-912 -912 -803 249 c-442
136 -814 252 -828 257 -22 8 8 22 225 104 1664 627 3221 1213 3225 1213 3 1
-405 -409 -907 -911z m1109 609 c-363 -980 -1279 -3392 -1283 -3384 -4 7 -120
378 -260 825 l-253 813 910 910 c500 500 910 909 911 909 1 0 -10 -33 -25 -73z"/>
</g>
</svg>
