<?xml version="1.0" standalone="no"?>
<!DOCTYPE svg PUBLIC "-//W3C//DTD SVG 20010904//EN"
 "http://www.w3.org/TR/2001/REC-SVG-20010904/DTD/svg10.dtd">
<svg version="1.0" xmlns="http://www.w3.org/2000/svg"
 width="512.000000pt" height="512.000000pt" viewBox="0 0 512.000000 512.000000"
 preserveAspectRatio="xMidYMid meet">

<g transform="translate(0.000000,512.000000) scale(0.100000,-0.100000)"
fill="#000000" stroke="none">
<path d="M895 4946 c-37 -16 -70 -52 -84 -89 -8 -20 -11 -715 -11 -2298 0
-1894 2 -2275 14 -2302 28 -68 104 -107 181 -93 27 5 221 155 798 616 419 336
767 608 774 606 6 -3 351 -276 765 -608 510 -408 764 -605 788 -612 78 -20
169 28 190 102 8 26 10 737 8 2314 l-3 2277 -21 27 c-11 15 -33 37 -48 48 -27
21 -28 21 -1674 23 -1357 2 -1652 0 -1677 -11z"/>
</g>
</svg>
