<?xml version="1.0" standalone="no"?>
<!DOCTYPE svg PUBLIC "-//W3C//DTD SVG 20010904//EN"
 "http://www.w3.org/TR/2001/REC-SVG-20010904/DTD/svg10.dtd">
<svg version="1.0" xmlns="http://www.w3.org/2000/svg"
 width="512.000000pt" height="512.000000pt" viewBox="0 0 512.000000 512.000000"
 preserveAspectRatio="xMidYMid meet">

<g transform="translate(0.000000,512.000000) scale(0.100000,-0.100000)"
fill="#000000" stroke="none">
<path d="M813 4822 c-12 -9 -27 -30 -32 -45 -8 -20 -11 -717 -11 -2235 0
-2081 1 -2209 18 -2242 11 -23 29 -39 54 -48 33 -13 41 -13 72 4 19 11 397
370 841 799 444 429 811 781 815 783 5 2 375 -352 824 -785 450 -433 829 -793
844 -800 37 -15 76 -6 107 24 l25 26 0 2239 0 2240 -29 29 -29 29 -1739 0
c-1631 0 -1739 -2 -1760 -18z m3357 -2209 l0 -2027 -37 35 c-21 20 -357 344
-748 720 -390 376 -725 696 -743 712 -24 19 -45 27 -73 27 -38 0 -49 -9 -292
-243 -1010 -975 -1293 -1247 -1299 -1247 -5 0 -8 911 -8 2025 l0 2025 1600 0
1600 0 0 -2027z"/>
</g>
</svg>
