<?xml version="1.0" standalone="no"?>
<!DOCTYPE svg PUBLIC "-//W3C//DTD SVG 20010904//EN"
 "http://www.w3.org/TR/2001/REC-SVG-20010904/DTD/svg10.dtd">
<svg version="1.0" xmlns="http://www.w3.org/2000/svg"
 width="128.000000pt" height="128.000000pt" viewBox="0 0 128.000000 128.000000"
 preserveAspectRatio="xMidYMid meet">

<g transform="translate(0.000000,128.000000) scale(0.100000,-0.100000)"
fill="#000000" stroke="none">
<path d="M2 1207 c3 -6 36 -137 74 -290 l69 -277 -72 -287 c-39 -158 -71 -288
-70 -289 4 -3 1267 571 1267 576 0 3 -224 106 -498 229 -273 124 -559 253
-636 288 -76 34 -136 57 -134 50z m583 -312 c264 -120 482 -219 484 -221 2 -2
-193 -4 -435 -4 l-439 0 -54 213 c-30 116 -57 218 -59 226 -7 18 -68 44 503
-214z m484 -289 c-4 -4 -978 -446 -984 -446 -1 0 23 101 54 225 l56 225 439 0
c242 0 437 -2 435 -4z"/>
</g>
</svg>
